# xmcd
#
# Track frame offsets:
# 150
# 18103
# 45098
# 63607
# 86496
# 102425
# 121953
# 137876
# 159604
# 180580
# 197630
# 224505
# 244133
# 264891
#
# Disc length: 3851 seconds
#
#
# Revision: 0
# Processed by: cddbd v1.5.2PL0 Copyright (c) Steve Scherf et al.
# Submitted via: FreeRIP 2.945 
#
DISCID=bc0f090e
DTITLE=Natalie Williams - Secret Garden
DYEAR=2006
DGENRE=R&B
TTITLE0=Secret Garden
TTITLE1=Butterfly
TTITLE2=The Way We Like It
TTITLE3=Psychadelic Love
TTITLE4=This Girl
TTITLE5=Settle the Score
TTITLE6=Dance For Me
TTITLE7=Does It Feel Good
TTITLE8=Wall
TTITLE9=Conversation
TTITLE10=You Don't Know
TTITLE11=To Know You Is To Love You
TTITLE12=Since You've Been Gone
TTITLE13=The Nanny
EXTD=
EXTT0=
EXTT1=
EXTT2=
EXTT3=
EXTT4=
EXTT5=
EXTT6=
EXTT7=
EXTT8=
EXTT9=
EXTT10=
EXTT11=
EXTT12=
EXTT13=
PLAYORDER=
